<svg width="19" height="19" viewBox="0 0 19 19" fill="none" xmlns="http://www.w3.org/2000/svg">
<path d="M11.9937 6.64999C11.387 6.64791 10.7857 6.76549 10.2245 6.99601C9.66318 7.22653 9.15286 7.56546 8.72271 7.99341C8.29255 8.42136 7.951 8.92993 7.7176 9.49002C7.4842 10.0501 7.36352 10.6507 7.36249 11.2575V15.9125C7.36249 16.1015 7.43755 16.2827 7.57117 16.4163C7.70479 16.5499 7.88602 16.625 8.07499 16.625H9.73749C9.92645 16.625 10.1077 16.5499 10.2413 16.4163C10.3749 16.2827 10.45 16.1015 10.45 15.9125V11.2575C10.4498 11.0417 10.4952 10.8283 10.583 10.6312C10.6709 10.434 10.7993 10.2576 10.9599 10.1135C11.1205 9.96932 11.3096 9.86063 11.5151 9.79448C11.7205 9.72833 11.9375 9.70621 12.1521 9.72957C12.5368 9.77804 12.8904 9.96602 13.1458 10.2579C13.4011 10.5497 13.5405 10.9251 13.5375 11.3129V15.9125C13.5375 16.1015 13.6126 16.2827 13.7462 16.4163C13.8798 16.5499 14.061 16.625 14.25 16.625H15.9125C16.1015 16.625 16.2827 16.5499 16.4163 16.4163C16.5499 16.2827 16.625 16.1015 16.625 15.9125V11.2575C16.6239 10.6507 16.5033 10.0501 16.2699 9.49002C16.0365 8.92993 15.6949 8.42136 15.2648 7.99341C14.8346 7.56546 14.3243 7.22653 13.763 6.99601C13.2017 6.76549 12.6005 6.64791 11.9937 6.64999Z" fill="#475569"/>
<path d="M5.225 7.36249H3.0875C2.694 7.36249 2.375 7.68148 2.375 8.07499V15.9125C2.375 16.306 2.694 16.625 3.0875 16.625H5.225C5.6185 16.625 5.9375 16.306 5.9375 15.9125V8.07499C5.9375 7.68148 5.6185 7.36249 5.225 7.36249Z" fill="#475569"/>
<path d="M4.15625 5.9375C5.14001 5.9375 5.9375 5.14001 5.9375 4.15625C5.9375 3.17249 5.14001 2.375 4.15625 2.375C3.17249 2.375 2.375 3.17249 2.375 4.15625C2.375 5.14001 3.17249 5.9375 4.15625 5.9375Z" fill="#475569"/>
</svg>
