<svg width="135" height="118" viewBox="0 0 135 118" fill="none" xmlns="http://www.w3.org/2000/svg">
<path d="M114.5 118L125.345 114.037L116.49 106.626L114.5 118ZM127.5 46.9999L128.373 46.5115L127.5 46.9999ZM1.00003 1.48888C1.06137 2.487 1.06135 2.487 1.06134 2.487C1.06133 2.487 1.06132 2.487 1.06131 2.487C1.0613 2.487 1.0613 2.487 1.06131 2.487C1.06133 2.487 1.06138 2.487 1.06147 2.48699C1.06165 2.48698 1.06197 2.48696 1.06244 2.48693C1.06337 2.48688 1.06487 2.48678 1.06695 2.48666C1.0711 2.48641 1.07754 2.48603 1.08625 2.48551C1.10366 2.48449 1.13015 2.48296 1.16555 2.48097C1.23635 2.477 1.34282 2.47123 1.48374 2.46411C1.76557 2.44989 2.18517 2.4303 2.73274 2.4091L2.65533 0.410595C2.09968 0.432118 1.67227 0.452052 1.3829 0.466659C1.23822 0.473963 1.12805 0.479935 1.0536 0.484108C1.01638 0.486194 0.988094 0.487832 0.96889 0.488961C0.95929 0.489524 0.951959 0.489962 0.946918 0.490266C0.944399 0.490417 0.942452 0.490535 0.941079 0.490619C0.940394 0.490659 0.939851 0.490693 0.939453 0.490718C0.939255 0.490728 0.939091 0.49074 0.938965 0.490746C0.9389 0.490752 0.938846 0.490754 0.9388 0.490757C0.938779 0.490757 0.938749 0.490761 0.938739 0.490761C0.938713 0.490763 0.938691 0.490763 1.00003 1.48888ZM9.76187 2.27523C12.6842 2.2681 16.2434 2.31389 20.2858 2.47118L20.3635 0.472691C16.2909 0.314223 12.704 0.268045 9.75699 0.275238L9.76187 2.27523ZM34.2531 3.38594C35.4007 3.49215 36.5661 3.6079 37.7473 3.73392L37.9595 1.74521C36.7687 1.61816 35.594 1.5015 34.4375 1.39445L34.2531 3.38594ZM44.6884 4.57568C48.0697 5.03626 51.5406 5.58481 55.0601 6.23691L55.4245 4.27038C51.871 3.612 48.3685 3.0585 44.9583 2.59398L44.6884 4.57568ZM68.7199 9.28025C69.8435 9.57629 70.9666 9.88449 72.088 10.2053L72.6382 8.28248C71.5029 7.95768 70.3663 7.64577 69.2295 7.34625L68.7199 9.28025ZM78.762 12.2779C82.0741 13.3917 85.3474 14.6263 88.5485 15.9943L89.3345 14.1552C86.0804 12.7646 82.7572 11.5113 79.3995 10.3822L78.762 12.2779ZM100.981 22.2628C101.98 22.8559 102.966 23.4662 103.936 24.0942L105.023 22.4151C104.03 21.7727 103.023 21.1489 102.002 20.543L100.981 22.2628ZM109.606 28.1059C112.361 30.2396 114.953 32.5457 117.348 35.0378L118.79 33.6521C116.323 31.0844 113.657 28.7135 110.83 26.5246L109.606 28.1059ZM125.756 45.9854C126.053 46.4808 126.344 46.9818 126.628 47.4884L128.373 46.5115C128.079 45.9874 127.779 45.4693 127.472 44.957L125.756 45.9854ZM126.628 47.4884C126.94 48.0462 127.238 48.6043 127.523 49.1624L129.304 48.2525C129.008 47.6717 128.697 47.0913 128.373 46.5115L126.628 47.4884ZM130.408 56.0967C131.616 59.8104 132.301 63.5059 132.57 67.1365L134.565 66.9886C134.285 63.2072 133.571 59.3529 132.31 55.478L130.408 56.0967ZM131.496 82.1316C131.236 83.3769 130.939 84.6041 130.612 85.8105L132.542 86.3345C132.879 85.0917 133.185 83.8261 133.453 82.5404L131.496 82.1316ZM128.234 92.9977C126.767 96.766 125.075 100.231 123.375 103.295L125.124 104.266C126.861 101.136 128.593 97.5884 130.098 93.7233L128.234 92.9977Z" fill="#5EEAD4"/>
</svg>
