<svg width="111" height="121" viewBox="0 0 111 121" fill="none" xmlns="http://www.w3.org/2000/svg">
<path d="M38.3834 14.1525C42.7962 13.6679 46.7824 16.015 50.2979 18.0864C52.1803 19.195 53.9603 20.2428 55.7061 20.8488C59.6505 22.2167 62.7981 22.222 65.8428 22.2267C70.7638 22.2325 75.8532 22.2402 83.092 28.0382C90.3807 33.8779 94.4155 40.3424 95.4256 47.8018C96.4173 55.117 94.2317 62.3898 92.2173 67.9055C90.9041 71.507 90.4635 75.5943 90.0001 79.9204C89.5958 83.6829 89.1788 87.5719 88.1433 91.305C85.4851 100.876 81.4028 105.286 74.4916 106.046C71.8267 106.34 68.9188 106.088 65.8408 105.821C63.1201 105.587 60.3079 105.344 57.2602 105.413C56.9664 105.42 56.6578 105.44 56.3467 105.475C54.8359 105.64 53.3311 106.102 51.7403 106.587C50.0411 107.106 48.2865 107.642 46.399 107.849C44.1399 108.098 42.0469 107.821 40.0064 107.004C33.6971 104.482 31.8076 99.9436 29.9808 95.5575C29.2361 93.7698 28.467 91.9243 27.3601 90.1023C25.9467 87.7789 24.0761 85.8134 22.0949 83.7298C19.0661 80.5471 15.934 77.2549 14.2481 72.4132C11.0034 63.0937 14.7032 56.202 17.7667 51.8284C18.7489 50.4236 19.7771 49.2389 20.7703 48.0923C22.8365 45.7089 24.6195 43.651 25.2226 40.4344C25.403 39.4731 25.2017 37.9849 25.0062 36.5466C24.772 34.8204 24.5311 33.0338 24.7446 31.2934C25.5152 24.9907 29.1112 17.4825 35.405 14.9095C36.3768 14.5192 37.3781 14.2642 38.3834 14.1525Z" fill="#C7D2FE"/>
<path d="M81.8966 30.1065C70.9718 21.3553 66.031 27.0638 55.2134 23.3113C49.0494 21.1744 43.2159 14.5347 36.318 17.3507C31.1304 19.4698 27.7324 25.7305 26.983 31.8576C26.6332 34.7198 27.9407 38.4638 27.4341 41.1705C26.3868 46.7554 22.6021 49.2194 19.5754 53.5379C16.0882 58.5178 13.7636 64.2393 16.3398 71.6383C18.8515 78.8558 25.3761 82.4913 29.1848 88.7564C33.1713 95.315 32.9182 101.511 40.5977 104.585C46.7058 107.028 51.4956 102.967 57.0334 102.84C71.1881 102.512 80.8759 108.754 85.9858 90.3503C88.1232 82.6509 87.4982 73.9456 90.1241 66.7563C94.7886 53.9702 96.3902 41.7166 81.8966 30.1065Z" fill="#C7D2FE"/>
</svg>
