<svg width="136" height="140" viewBox="0 0 136 140" fill="none" xmlns="http://www.w3.org/2000/svg">
<path d="M42.5481 117.527C38.9201 114.317 37.8926 109.376 36.9876 105.017C36.5025 102.683 36.0434 100.477 35.2525 98.6222C33.4646 94.4326 31.1605 91.8861 28.9312 89.4231C25.3267 85.4437 21.6003 81.3268 20.9749 71.2269C20.3465 61.056 22.6093 53.0555 27.8943 46.7687C33.0762 40.6025 40.5542 37.034 46.4873 34.616C50.3597 33.0353 53.9845 30.3935 57.819 27.5951C61.1549 25.1622 64.6024 22.6467 68.3773 20.7453C78.0584 15.8731 84.6152 15.9361 90.2973 20.9621C92.4893 22.8993 94.4186 25.433 96.4605 28.1152C98.267 30.4845 100.133 32.9348 102.424 35.3455C102.646 35.5776 102.888 35.8123 103.144 36.0384C104.386 37.1373 105.862 38.0148 107.421 38.944C109.086 39.936 110.806 40.9602 112.357 42.3331C114.216 43.9753 115.527 45.8691 116.364 48.1164C118.954 55.063 116.673 59.9178 114.47 64.6104C113.572 66.5231 112.645 68.498 111.985 70.7284C111.145 73.5741 110.929 76.5268 110.699 79.6554C110.35 84.4363 109.987 89.3809 107.313 94.2938C102.164 103.75 93.8833 105.816 88.1035 106.549C86.2483 106.786 84.5372 106.824 82.8826 106.863C79.4419 106.942 76.4718 107.011 73.4311 108.882C72.5222 109.442 71.4677 110.696 70.4492 111.909C69.2266 113.364 67.96 114.869 66.3975 115.973C60.741 119.973 52.0384 122.575 45.3439 119.378C44.316 118.879 43.3756 118.257 42.5481 117.527Z" fill="#99F6E4"/>
<path d="M23.5221 70.6746C24.4653 85.918 32.7004 85.7224 37.6029 97.2132C40.3975 103.76 39.3124 113.342 46.6462 116.849C52.1628 119.485 59.7122 117.638 65.2114 113.75C67.7801 111.933 69.8455 108.131 72.4036 106.555C77.6832 103.305 82.4494 104.555 88.1577 103.833C94.7381 102.998 101.065 100.679 105.152 93.1714C109.141 85.8491 107.292 77.9121 109.56 70.2405C111.934 62.21 117.125 57.8702 113.975 49.4124C111.469 42.6863 104.676 41.7957 100.512 37.4151C89.866 26.221 87.8029 13.8172 69.1883 23.1873C61.4011 27.1076 54.8273 33.9971 47.0939 37.1487C33.3441 42.7582 22.2709 50.4515 23.5221 70.6746Z" fill="#99F6E4"/>
</svg>
