<svg width="329" height="285" viewBox="0 0 329 285" fill="none" xmlns="http://www.w3.org/2000/svg">
<g opacity="0.58">
<path d="M21.9231 0H0V21.9231H21.9231V0Z" fill="#F0F9FF"/>
<path d="M65.7692 0H43.8462V21.9231H65.7692V0Z" fill="#F0F9FF"/>
<path d="M87.6923 0H109.615V21.9231H87.6923V0Z" fill="#F0F9FF"/>
<path d="M153.462 0H131.538V21.9231H153.462V0Z" fill="#F0F9FF"/>
<path d="M175.385 0H197.308V21.9231H175.385V0Z" fill="#F0F9FF"/>
<path d="M241.154 0H219.231V21.9231H241.154V0Z" fill="#F0F9FF"/>
<path d="M263.077 0H285V21.9231H263.077V0Z" fill="#F0F9FF"/>
<path d="M328.846 0H306.923V21.9231H328.846V0Z" fill="#F0F9FF"/>
<path d="M0 43.8462H21.9231V65.7692H0V43.8462Z" fill="#F0F9FF"/>
<path d="M65.7692 43.8462H43.8462V65.7692H65.7692V43.8462Z" fill="#F0F9FF"/>
<path d="M87.6923 43.8462H109.615V65.7692H87.6923V43.8462Z" fill="#F0F9FF"/>
<path d="M153.462 43.8462H131.538V65.7692H153.462V43.8462Z" fill="#F0F9FF"/>
<path d="M175.385 43.8462H197.308V65.7692H175.385V43.8462Z" fill="#F0F9FF"/>
<path d="M241.154 43.8462H219.231V65.7692H241.154V43.8462Z" fill="#F0F9FF"/>
<path d="M263.077 43.8462H285V65.7692H263.077V43.8462Z" fill="#F0F9FF"/>
<path d="M328.846 43.8462H306.923V65.7692H328.846V43.8462Z" fill="#F0F9FF"/>
<path d="M0 87.6923H21.9231V109.615H0V87.6923Z" fill="#F0F9FF"/>
<path d="M65.7692 87.6923H43.8462V109.615H65.7692V87.6923Z" fill="#F0F9FF"/>
<path d="M87.6923 87.6923H109.615V109.615H87.6923V87.6923Z" fill="#F0F9FF"/>
<path d="M153.462 87.6923H131.538V109.615H153.462V87.6923Z" fill="#F0F9FF"/>
<path d="M175.385 87.6923H197.308V109.615H175.385V87.6923Z" fill="#F0F9FF"/>
<path d="M241.154 87.6923H219.231V109.615H241.154V87.6923Z" fill="#F0F9FF"/>
<path d="M263.077 87.6923H285V109.615H263.077V87.6923Z" fill="#F0F9FF"/>
<path d="M328.846 87.6923H306.923V109.615H328.846V87.6923Z" fill="#F0F9FF"/>
<path d="M0 131.538H21.9231V153.462H0V131.538Z" fill="#F0F9FF"/>
<path d="M65.7692 131.538H43.8462V153.462H65.7692V131.538Z" fill="#F0F9FF"/>
<path d="M87.6923 131.538H109.615V153.462H87.6923V131.538Z" fill="#F0F9FF"/>
<path d="M153.462 131.538H131.538V153.462H153.462V131.538Z" fill="#F0F9FF"/>
<path d="M175.385 131.538H197.308V153.462H175.385V131.538Z" fill="#F0F9FF"/>
<path d="M241.154 131.538H219.231V153.462H241.154V131.538Z" fill="#F0F9FF"/>
<path d="M263.077 131.538H285V153.462H263.077V131.538Z" fill="#F0F9FF"/>
<path d="M328.846 131.538H306.923V153.462H328.846V131.538Z" fill="#F0F9FF"/>
<path d="M0 175.385H21.9231V197.308H0V175.385Z" fill="#F0F9FF"/>
<path d="M65.7692 175.385H43.8462V197.308H65.7692V175.385Z" fill="#F0F9FF"/>
<path d="M87.6923 175.385H109.615V197.308H87.6923V175.385Z" fill="#F0F9FF"/>
<path d="M153.462 175.385H131.538V197.308H153.462V175.385Z" fill="#F0F9FF"/>
<path d="M175.385 175.385H197.308V197.308H175.385V175.385Z" fill="#F0F9FF"/>
<path d="M241.154 175.385H219.231V197.308H241.154V175.385Z" fill="#F0F9FF"/>
<path d="M263.077 175.385H285V197.308H263.077V175.385Z" fill="#F0F9FF"/>
<path d="M328.846 175.385H306.923V197.308H328.846V175.385Z" fill="#F0F9FF"/>
<path d="M0 219.231H21.9231V241.154H0V219.231Z" fill="#F0F9FF"/>
<path d="M65.7692 219.231H43.8462V241.154H65.7692V219.231Z" fill="#F0F9FF"/>
<path d="M87.6923 219.231H109.615V241.154H87.6923V219.231Z" fill="#F0F9FF"/>
<path d="M153.462 219.231H131.538V241.154H153.462V219.231Z" fill="#F0F9FF"/>
<path d="M175.385 219.231H197.308V241.154H175.385V219.231Z" fill="#F0F9FF"/>
<path d="M241.154 219.231H219.231V241.154H241.154V219.231Z" fill="#F0F9FF"/>
<path d="M263.077 219.231H285V241.154H263.077V219.231Z" fill="#F0F9FF"/>
<path d="M328.846 219.231H306.923V241.154H328.846V219.231Z" fill="#F0F9FF"/>
<path d="M0 263.077H21.9231V285H0V263.077Z" fill="#F0F9FF"/>
<path d="M65.7692 263.077H43.8462V285H65.7692V263.077Z" fill="#F0F9FF"/>
<path d="M87.6923 263.077H109.615V285H87.6923V263.077Z" fill="#F0F9FF"/>
<path d="M153.462 263.077H131.538V285H153.462V263.077Z" fill="#F0F9FF"/>
<path d="M175.385 263.077H197.308V285H175.385V263.077Z" fill="#F0F9FF"/>
<path d="M241.154 263.077H219.231V285H241.154V263.077Z" fill="#F0F9FF"/>
<path d="M263.077 263.077H285V285H263.077V263.077Z" fill="#F0F9FF"/>
<path d="M328.846 263.077H306.923V285H328.846V263.077Z" fill="#F0F9FF"/>
</g>
</svg>
