<svg width="22" height="21" viewBox="0 0 22 21" fill="none" xmlns="http://www.w3.org/2000/svg">
<rect x="0.000549316" width="22" height="21" rx="4" fill="url(#paint0_linear_11_21)"/>
<path d="M10.4949 16H6.88549V5.81818H10.5247C11.5488 5.81818 12.4305 6.02202 13.1696 6.42969C13.9087 6.83404 14.4771 7.41572 14.8748 8.17472C15.2759 8.93371 15.4764 9.84186 15.4764 10.8991C15.4764 11.9598 15.2759 12.8712 14.8748 13.6335C14.4771 14.3958 13.9054 14.9808 13.1596 15.3885C12.4172 15.7962 11.529 16 10.4949 16ZM9.03819 14.1555H10.4054C11.0417 14.1555 11.577 14.0429 12.0112 13.8175C12.4487 13.5888 12.7768 13.2358 12.9956 12.7585C13.2176 12.2779 13.3287 11.6581 13.3287 10.8991C13.3287 10.1468 13.2176 9.53196 12.9956 9.05469C12.7768 8.57741 12.4504 8.22609 12.0162 8.00071C11.582 7.77533 11.0467 7.66264 10.4104 7.66264H9.03819V14.1555Z" fill="white"/>
<defs>
<linearGradient id="paint0_linear_11_21" x1="0.000548993" y1="-14.5" x2="28.5006" y2="35" gradientUnits="userSpaceOnUse">
<stop stop-color="#38BDF8"/>
<stop offset="0.619792" stop-color="#63F2E0"/>
</linearGradient>
</defs>
</svg>
