<svg id="visual" viewBox="0 0 960 540" width="960" height="540" xmlns="http://www.w3.org/2000/svg" xmlns:xlink="http://www.w3.org/1999/xlink" version="1.1"><path d="M0 296L22.8 304.3C45.7 312.7 91.3 329.3 137 332.2C182.7 335 228.3 324 274 329.5C319.7 335 365.3 357 411.2 362.5C457 368 503 357 548.8 350.8C594.7 344.7 640.3 343.3 686 334.2C731.7 325 777.3 308 823 307.5C868.7 307 914.3 323 937.2 331L960 339L960 541L937.2 541C914.3 541 868.7 541 823 541C777.3 541 731.7 541 686 541C640.3 541 594.7 541 548.8 541C503 541 457 541 411.2 541C365.3 541 319.7 541 274 541C228.3 541 182.7 541 137 541C91.3 541 45.7 541 22.8 541L0 541Z" fill="#6fd6f7"></path><path d="M0 388L22.8 393.8C45.7 399.7 91.3 411.3 137 408.3C182.7 405.3 228.3 387.7 274 379C319.7 370.3 365.3 370.7 411.2 368.5C457 366.3 503 361.7 548.8 360.3C594.7 359 640.3 361 686 367.7C731.7 374.3 777.3 385.7 823 386.5C868.7 387.3 914.3 377.7 937.2 372.8L960 368L960 541L937.2 541C914.3 541 868.7 541 823 541C777.3 541 731.7 541 686 541C640.3 541 594.7 541 548.8 541C503 541 457 541 411.2 541C365.3 541 319.7 541 274 541C228.3 541 182.7 541 137 541C91.3 541 45.7 541 22.8 541L0 541Z" fill="#43758e"></path><path d="M0 483L22.8 481C45.7 479 91.3 475 137 474C182.7 473 228.3 475 274 469.8C319.7 464.7 365.3 452.3 411.2 444.2C457 436 503 432 548.8 433.3C594.7 434.7 640.3 441.3 686 444.5C731.7 447.7 777.3 447.3 823 446C868.7 444.7 914.3 442.3 937.2 441.2L960 440L960 541L937.2 541C914.3 541 868.7 541 823 541C777.3 541 731.7 541 686 541C640.3 541 594.7 541 548.8 541C503 541 457 541 411.2 541C365.3 541 319.7 541 274 541C228.3 541 182.7 541 137 541C91.3 541 45.7 541 22.8 541L0 541Z" fill="#15222d"></path></svg>